<?xml version="1.0" standalone="no"?><!DOCTYPE svg PUBLIC "-//W3C//DTD SVG 1.1//EN" "http://www.w3.org/Graphics/SVG/1.1/DTD/svg11.dtd"><svg t="1747759481133" class="icon" viewBox="0 0 1024 1024" version="1.1" xmlns="http://www.w3.org/2000/svg" p-id="1536" xmlns:xlink="http://www.w3.org/1999/xlink" width="200" height="200"><path d="M767.853714 259.803429s-26.916571 88.356571-39.497143 160.475428c0 0-2.633143-1.316571-2.925714-2.340571s-4.096-72.411429-58.514286-120.978286c0 0-22.674286-30.72-50.176-31.597714 0 0-34.230857-19.163429-104.740571-15.798857 0 0 10.678857-7.021714 20.772571-9.508572 1.170286-0.292571 2.194286-0.877714 2.925715-1.755428 1.316571-1.609143 1.609143-3.949714-6.729143-4.242286-13.019429-0.585143-30.134857 4.681143-30.134857 4.681143s13.897143-24.868571-5.705143-23.259429c0 0-8.045714 16.969143-18.285714 27.355429 0 0 1.316571-16.676571-4.534858-10.386286-5.851429 6.290286-18.578286 34.816-32.182857 39.204571s-44.763429 23.405714-44.763428 23.405715-51.492571 38.473143-63.195429 102.107428c0 0-7.753143 47.981714-5.851428 62.464 0 0-2.194286-1.170286-2.925715-1.901714s-51.931429-114.541714-51.931428-114.541714-14.628571-43.154286-12.141715-60.123429l0.877715-31.305143c0-0.585143 0-1.170286 0.146285-1.609143 1.316571-8.777143 11.995429-87.917714-27.209142-85.138285-2.925714 0.146286-5.705143 1.755429-8.338286 3.218285-10.093714 5.851429-46.518857 28.818286-58.806857 61.44l18.285714 22.381715s15.945143 15.213714-8.338286 18.285714c0 0-21.942857 0-27.501714-4.388571 0 0-46.372571 88.064 15.945143 162.084571s138.093714 89.526857 171.593143 87.04c0 0 11.702857 29.696 66.121143 35.401143l25.453714 4.388571s4.388571 0.877714-0.585143 3.949715-36.864 32.182857-10.825143 74.605714c0 0 3.949714 4.388571-4.534857 17.408-8.484571 13.165714-26.624 42.422857-35.693714 64.512 0 0-37.156571-4.388571-57.636572 28.379428 0 0-17.846857-4.534857-24.283428 8.192 0 0-12.141714-0.731429-17.993143 2.048 0 0-4.096-7.606857-18.139429-0.877714-14.189714 6.729143-13.750857 16.530286-13.750857 16.530286s-2.779429 8.484571-0.585143 11.849143c0 0-15.798857 4.534857-17.846857 16.969143-0.585143 3.364571 0 6.875429 1.462857 10.093714 2.340571 4.681143 7.606857 12.873143 18.285715 14.628571 0 0 18.870857 65.536 63.195428 56.173715 0 0 11.556571 3.072 20.333714-1.170286 0 0 6.875429-1.755429 5.558858 2.194286-1.170286 3.657143-6.875429 17.700571 3.803428 16.676571 1.755429-0.146286 3.510857-0.731429 5.12-1.609143l13.165714-7.021714s-1.901714 16.676571 9.069715 12.873143c10.971429-3.803429 20.626286-11.702857 20.626285-11.702857s8.630857 10.532571 38.326858-3.218286c5.412571-2.486857 11.556571-3.510857 17.554285-2.779429 3.510857 0.438857 7.314286 1.462857 10.386286 3.803429 3.218286 2.340571 7.021714 4.096 10.971429 4.534857 3.364571 0.438857 6.729143 0.146286 7.606857-2.633143l2.779428 0.292572 21.211429 16.237714s6.436571-2.340571 4.534857-12.580572c-0.877714-4.681143-3.218286-9.069714-6.729143-12.434285-2.486857-2.486857-5.705143-4.973714-8.777143-5.266286 0 0-1.609143-9.508571 7.021715-6.875429 8.630857 2.633143 22.235429 4.096 22.235428 4.096l-0.292571 5.266286s-16.091429 5.266286-9.654857 24.576c0 0 10.971429-2.779429 18.139428-10.093714 0 0 4.242286-0.877714 6.290286 2.633143 1.901714 3.657143 14.336 1.462857 18.870857-7.021715 3.949714-7.753143 29.696 6.144 44.470857 17.700572 3.218286 2.486857 10.971429 5.12 10.971429 5.12s8.923429 15.945143 13.750857 13.458286c4.827429-2.486857 7.168-17.408 2.486857-24.137143 0 0 0.731429-3.510857 4.973714-0.877715 4.242286 2.633143 12.288 0.292571 12.288 0.292572l14.628572 16.091428s15.36-4.096 5.558857-22.381714c0 0 8.045714-1.755429 14.628571 4.096 0 0 5.851429 0.731429 5.851429-5.558857 0-2.925714-1.316571-5.851429-3.657143-7.753143-2.486857-2.194286-6.729143-5.412571-12.434286-7.606857v-11.117714s13.750857-4.096 45.348572 23.844571c8.777143 7.753143 17.846857 12.434286 26.331428 15.213714 19.602286 6.290286 41.106286 2.340571 57.490286-10.24 12.434286-9.508571 27.209143-24.283429 27.648-40.96 0 0 9.654857 3.657143 17.554286-13.165714 0 0 21.796571-10.971429-6.875429-31.158857 0 0-9.362286-4.242286-6.875428-7.606857 2.633143-3.364571 7.021714-4.827429 5.412571-13.458286-1.609143-8.630857-0.146286-19.456-20.48-21.650286 0 0-4.388571-3.072-13.458286 2.048 0 0-15.652571-7.021714-16.822857-7.021714-1.170286 0-23.113143-39.497143-57.782857-29.403428 0 0 0.585143-18.432-24.722286-43.446858-5.705143-5.705143-12.141714-10.532571-18.870857-14.774857-7.021714-4.388571-18.724571-14.043429-19.602286-29.696-0.292571-4.096-0.585143-8.192-1.024-12.288-0.731429-6.436571-0.877714-16.530286 2.633143-25.892571 5.705143-15.506286-2.048-40.813714-28.233143-50.761143 0 0 16.384-17.846857 43.154286-25.307429 26.770286-7.460571 52.809143-27.794286 57.490286-45.933714 0 0 73.142857-1.170286 126.683428-94.646857 0 0-39.350857-19.602286-20.48-24.283429s36.425143-5.412571 36.425143-5.412571 40.374857-26.477714 23.844572-102.692571c-4.534857-21.211429-12.726857-41.398857-23.698286-60.123429-19.602286-33.353143-60.708571-92.013714-101.668571-79.725714-0.731429-0.438857-24.429714 14.189714 0.146285 142.921143z" p-id="1537"></path><path d="M462.994286 405.065143s-18.870857-43.739429 27.648-64.804572c30.72-13.897143 60.123429-6.290286 76.653714 0.438858 15.652571 6.290286 26.185143 21.211429 26.624 38.034285 0.146286 7.899429-1.755429 16.969143-7.899429 26.331429 0 0-2.194286-10.532571-4.096-11.410286-1.901714-0.877714-6.875429-7.460571-10.24 2.486857s-14.628571 55.442286-39.936 47.981715c-21.211429-6.290286-29.842286-17.261714-32.036571-20.626286-0.292571-0.438857-0.585143-1.024-0.877714-1.462857-1.901714-3.803429-15.506286-28.964571-35.84-16.969143z" fill="#314360" p-id="1538"></path><path d="M875.52 218.697143c43.446857 88.064-5.705143 136.484571-5.705143 136.484571-24.429714 2.633143-40.813714 5.266286-45.056 12.726857-4.096 7.460571 22.820571 21.211429 22.820572 21.211429-9.801143 33.645714-79.872 55.881143-79.872 55.881143 29.988571-53.833143 12.873143-142.628571 12.873142-142.628572s-12.434286-55.296-17.408-121.709714c-4.973714-66.56 11.702857-64.073143 11.702858-64.073143s49.005714-2.194286 100.644571 102.107429zM145.554286 272.384S80.603429 437.248 272.384 471.04c0 0-29.110857-59.392-23.990857-116.589714 0.877714-10.386286 1.755429-20.772571 2.340571-31.305143l4.681143-85.723429s3.803429-83.968-31.158857-66.852571-56.466286 58.660571-56.466286 58.660571 34.962286 30.72 18.285715 40.374857c-16.822857 9.362286-40.521143 2.779429-40.521143 2.779429z" fill="#FE6798" p-id="1539"></path><path d="M373.76 500.736s157.988571-67.876571 320.804571-27.501714c0 0 5.851429 27.355429-49.883428 54.710857-40.521143 19.894857-64.219429 38.180571-74.313143 46.811428-9.216 7.899429-12.873143 20.626286-9.069714 32.036572 1.462857 4.388571 3.949714 9.216 7.899428 14.189714 0 0-7.168 33.792-4.973714 42.130286 0 0-56.027429 81.92-31.890286 189.878857 0 0-22.528 0-23.259428 16.676571 0 0-25.746286-2.048-31.744-16.969142l-13.458286-1.170286s42.130286-87.478857 9.947429-168.374857c0 0 5.266286-38.180571-6.582858-72.850286 0 0 19.894857-28.525714 13.019429-40.521143-6.875429-11.849143-33.499429-20.187429-33.499429-20.187428s-74.605714-22.089143-72.996571-48.859429zM629.028571 282.624s-37.449143-3.949714-32.914285 77.385143c0 0 10.093714 24.868571-2.194286 42.276571 0 0-2.486857 30.866286 58.075429 42.715429 32.621714 6.290286 49.590857-13.897143 56.612571-33.499429 6.436571-17.993143 5.266286-37.888-2.925714-55.149714-13.165714-27.794286-41.837714-72.557714-76.653715-73.728z" fill="#69BBDE" p-id="1540"></path><path d="M649.801143 325.339429h3.803428c0.146286 0.146286 0.292571 0.146286 0.292572 0.146285 4.534857 0.292571 8.777143 1.609143 12.873143 3.803429 3.803429 2.048 7.021714 4.973714 9.801143 8.338286 6.436571 7.460571 9.947429 16.237714 10.678857 26.038857 0 0.731429 0 1.462857 0.146285 2.194285v3.364572c-0.146286 0-0.146286 0.146286-0.146285 0.292571 0 2.194286-0.292571 4.388571-0.585143 6.436572-0.731429 5.412571-2.048 10.532571-4.096 15.652571-2.194286 5.412571-5.266286 10.24-9.508572 14.189714-5.705143 5.266286-12.580571 8.338286-20.187428 9.947429-5.997714 1.170286-12.141714 1.316571-18.285714 0.731429-5.851429-0.585143-11.410286-1.901714-16.969143-3.949715-3.364571-1.170286-6.582857-2.779429-9.508572-4.827428-1.609143-1.170286-3.218286-2.486857-3.657143-4.681143v-0.585143c0.146286-0.292571 0.146286-0.585143 0.146286-1.024 0.438857-4.827429 1.024-9.508571 1.901714-14.336 1.316571-8.045714 3.218286-15.798857 5.997715-23.552 2.486857-7.021714 5.558857-13.750857 9.654857-19.894857 3.072-4.534857 6.729143-8.630857 11.117714-11.995429 4.388571-3.218286 9.069714-5.412571 14.482286-5.997714 0.731429-0.146286 1.316571-0.146286 2.048-0.292571z" p-id="1541"></path><path d="M630.249531 364.91538a10.386286 13.897143 22.117 1 0 10.464525-25.749098 10.386286 13.897143 22.117 1 0-10.464525 25.749098Z" fill="#FFFFFF" p-id="1542"></path><path d="M451.437714 375.369143s-1.462857 23.990857 9.216 33.353143c0 0 8.045714 32.914286-37.156571 49.883428 0 0-30.72 20.918857-60.269714 7.899429-7.168-3.072-12.873143-8.777143-16.091429-15.798857-3.364571-7.314286-7.168-19.017143-8.045714-35.547429-1.462857-29.257143 7.314286-58.075429 24.868571-81.627428 10.532571-14.189714 24.722286-26.185143 40.667429-22.674286 33.499429 7.168 46.811429 64.512 46.811428 64.512z" fill="#69BBDE" p-id="1543"></path><path d="M394.971429 357.083429h4.096c0.146286 0.146286 0.292571 0 0.292571 0.146285 5.851429 0.438857 11.264 2.048 16.237714 5.12 5.997714 3.657143 11.264 8.045714 15.945143 13.019429 4.534857 4.827429 8.338286 10.24 11.410286 16.237714 4.973714 9.801143 7.460571 20.333714 8.045714 31.305143 0 0.146286 0 0.292571 0.146286 0.438857v0.292572c-3.657143 5.266286-8.192 9.654857-13.312 13.604571-4.388571 3.218286-9.069714 5.705143-14.336 7.168-3.657143 1.024-7.314286 1.170286-11.117714 1.609143-0.731429 0-1.609143 0-2.486858 0.146286h-6.729142c0-0.146286-0.146286 0-0.292572-0.146286-1.024 0-1.901714-0.146286-2.925714-0.146286-4.681143-0.438857-9.216-1.316571-13.750857-2.779428-6.582857-2.340571-12.141714-5.851429-16.822857-11.117715-6.144-7.021714-9.362286-15.213714-10.532572-24.283428-0.146286-0.731429-0.146286-1.462857-0.292571-2.194286v-3.072c0.146286-0.146286 0.146286-0.146286 0.146285-0.292571 0-1.170286 0.146286-2.486857 0.292572-3.657143 0.438857-4.681143 1.316571-9.216 2.779428-13.604572 2.194286-6.875429 5.705143-13.165714 11.117715-18.139428 5.558857-5.12 12.141714-8.192 19.748571-9.216 0.731429-0.292571 1.462857-0.292571 2.340572-0.438857z" p-id="1544"></path><path d="M404.332193 385.163278a13.165714 10.678857 49.9 1 0 16.336972-13.757008 13.165714 10.678857 49.9 1 0-16.336972 13.757008Z" fill="#FFFFFF" p-id="1545"></path><path d="M591.579429 410.624c13.897143 29.403429 55.442286 35.547429 55.442285 35.547429 68.169143 13.604571 65.828571-56.466286 68.754286-57.051429 2.925714-0.585143 11.117714 47.835429 11.264 52.809143 0.146286 4.973714 2.633143 3.072 2.633143 3.072-2.194286-33.499429 39.936-173.494857 39.936-173.494857 40.96 159.597714-28.525714 195.876571-28.525714 195.876571 10.825143-2.486857 24.429714-19.894857 24.429714-19.894857 20.333714-3.657143 51.638857-21.504 51.638857-21.504 1.901714-1.024 1.901714-0.292571 1.609143 0.438857-0.146286 0.585143-0.585143 1.024-0.877714 1.462857-55.734857 56.173714-89.673143 50.468571-89.673143 50.468572 1.901714-3.803429 2.633143-14.628571 2.633143-14.628572l-7.314286 17.846857c-15.213714 28.672-59.392 44.909714-71.241143 50.029715-11.849143 5.12-28.086857 18.432-31.597714 20.48-3.510857 2.048-8.630857-2.048-8.630857-2.048s45.056-26.038857 64.219428-40.082286c19.309714-14.043429 22.381714-37.302857 22.381714-37.302857 4.681143 1.755429 10.971429-0.146286 16.237715-0.438857 5.266286-0.146286 0.292571 8.045714 0.292571 8.045714s6.729143 0.438857 5.412572-9.947429c-1.316571-10.386286-13.458286-8.338286-13.458286-8.338285 14.482286 7.021714 4.827429 7.606857-6.729143 6.729143-9.362286-0.731429-18.578286-2.194286-27.648-4.534858-55.149714-13.897143-133.851429-5.412571-133.851429-5.412571V449.097143c26.624-3.510857 52.662857-38.473143 52.662858-38.473143z m26.477714 38.473143c1.170286-0.585143 1.316571-1.316571 0.731428-2.486857-0.731429-1.316571-1.755429-2.340571-2.779428-3.364572-3.510857-3.364571-7.460571-6.144-11.556572-8.923428-0.877714-0.585143-1.901714-1.024-2.925714-1.170286-0.146286 0-0.146286 0-0.146286-0.146286h-1.024c-0.438857 0.146286-0.877714 0.292571-1.024 0.731429v0.438857c0.292571 0.877714 0.877714 1.609143 1.462858 2.194286 2.194286 2.194286 4.388571 4.242286 6.729142 6.290285 2.925714 2.486857 5.851429 5.12 9.508572 6.290286 0.292571 0.146286 0.731429 0.146286 1.024 0.146286zM464.457143 414.427429s31.890286 31.012571 71.68 34.669714v9.654857s-58.514286 2.633143-155.940572 35.693714c-4.973714 1.609143-10.093714 2.925714-15.36 3.510857-6.144 0.731429-12.434286 0.585143-9.508571-3.510857l2.194286-0.146285s-9.947429-4.973714-10.678857 10.093714c-0.146286 1.609143 0.146286 3.364571 0.731428 4.827428 0.731429 1.755429 2.048 3.803429 4.388572 3.657143 0 0-0.146286-4.096-0.585143-5.851428-0.438857-1.609143-2.048-5.266286 2.048-4.388572 4.096 0.877714 18.432-1.462857 18.432-1.462857s-1.024 26.770286 43.739428 38.765714c0 0 65.097143 21.796571 63.780572 39.058286-1.316571 17.115429-11.702857 25.161143-11.702857 25.161143s-1.609143-5.412571-2.340572-2.779429c-0.731429 2.633143-0.146286 11.117714-0.146286 11.117715s7.021714 40.374857 6.729143 58.368c0 0-6.729143-10.825143-7.460571-7.899429s4.534857 13.458286 4.534857 13.458286 27.940571 102.985143-7.753143 171.593143c0 0-3.949714-0.585143-4.534857-2.633143-0.585143-2.048-2.048 11.410286 17.554286 11.264 2.194286 0 4.096 1.316571 4.827428 3.364571 0.877714 2.633143 1.024 7.021714-1.316571 14.482286 0 0-12.141714 0.292571-10.971429 11.849143 0 0-9.947429 5.266286-20.626285-4.242286 0 0-16.822857-3.949714-32.182858 2.925714s-24.283429 3.657143-24.283428 3.657143 10.093714-10.532571 2.633143-15.506285c-7.460571-4.973714-13.165714-0.877714-13.165715-0.877715s0.146286-16.969143 13.458286-19.748571c2.486857-0.438857 4.973714 0 7.021714 1.462857 1.609143 1.024 3.364571 2.925714 5.266286 5.705143 0 0 2.340571 0 0.877714-2.194286s-8.484571-13.165714-20.48-4.973714c-11.995429 8.338286-10.678857 16.822857-10.24 21.211428 0 0-5.705143 2.340571-6.290285 0.292572s0.292571-12.141714-14.482286-8.045714l-5.412571 0.146285s-0.292571-11.264 14.336-14.921143 9.216-7.606857 9.216-7.606857-8.923429 7.460571-16.969143 6.582857-11.117714 17.408-11.117715 17.408-18.578286-1.901714-14.336-13.019428c3.072-8.192 11.117714-8.630857 15.213715-8.338286 2.925714 0.292571 5.997714 0.146286 8.923428-0.438857 4.388571-0.877714 9.947429-2.633143 12.288-6.144 0 0-12.434286-34.962286 0.438857-80.603429 0 0 14.336-62.171429 43.593143-104.448 4.096-5.997714 6.875429-12.873143 7.460572-20.187428 0.292571-3.364571 0.146286-6.582857-1.170286-8.192 0 0-16.091429-28.964571 6.290286-60.416 4.096-5.705143 11.410286-7.899429 17.846857-5.266286 0.146286 0.146286 0.292571 0.146286 0.585143 0.292572 8.923429 3.949714 26.624 11.849143 27.355428 10.386285 0 0-16.384-16.822857-45.641143-19.894857-27.648-3.072-61.147429-17.700571-66.267428-20.48-0.585143-0.292571-1.024-0.585143-1.609143-0.877714-3.364571-1.755429-14.482286-8.192-21.942857-23.405714 0 0-2.925714-2.340571-1.755429 0.146285 1.170286 2.486857 1.170286 5.705143 1.170286 5.705143s-83.236571 3.949714-160.036571-80.164571c0 0 61.293714 43.446857 102.546285 40.521143s1.316571 1.170286 1.316572 1.170285 13.604571 17.700571 20.772571 18.870857c0 0-54.564571-31.158857-43.300571-172.763428 0 0 2.925714-4.096 5.412571 6.729143 2.486857 10.825143 41.252571 92.013714 41.252572 92.013714l23.844571 55.442286s0 8.630857 1.609143 8.045714 1.170286-21.504 1.170286-21.504 2.194286-54.125714 8.923428-58.806857c0 0 1.609143 50.761143 14.482286 62.025143 14.189714 12.434286 31.890286 10.24 31.890286 10.24s80.164571-5.705143 81.773714-59.830857z m-3.657143 34.230857c-0.146286-0.438857-0.292571-0.731429-0.731429-0.877715h-0.585142c-0.585143 0.292571-1.170286 0.731429-1.609143 1.170286-4.827429 5.266286-9.654857 10.678857-14.482286 15.945143-0.585143 0.585143-1.024 1.170286-1.316571 2.048v0.146286c0.292571 0.585143 0.585143 0.731429 1.170285 0.585143 0.731429-0.146286 1.462857-0.438857 2.048-0.877715 2.048-1.170286 3.803429-2.779429 5.412572-4.534857 2.633143-2.633143 5.12-5.412571 7.460571-8.338286 1.024-1.170286 2.048-2.340571 2.340572-3.949714 0.292571-0.585143 0.292571-1.024 0.292571-1.316571z" fill="#567CAA" p-id="1546"></path><path d="M336.310857 765.659429l6.582857 10.24h14.921143s9.362286-52.516571 14.482286-57.782858c0 0-33.645714-0.731429-49.883429 24.429715-0.731429 1.170286-0.731429 2.779429 0.146286 3.803428 0.292571 0.438857 0.731429 0.585143 1.170286 0.585143 1.755429 0 13.897143 8.923429 12.580571 18.724572z" fill="#567CAA" p-id="1547"></path><path d="M357.083429 783.798857s-16.091429-1.316571-13.165715 11.702857 12.434286 16.969143 12.434286 16.969143l3.949714 24.283429s2.486857 7.753143-21.796571 6.290285c0 0-1.024-61.732571-59.245714-50.322285-0.585143 0.146286-1.170286 0.292571-1.609143 0.438857-3.657143 1.609143-16.822857 9.362286-14.921143 35.986286 2.194286 31.012571 42.130286 40.96 49.444571 38.765714 0 0-2.194286 9.947429-7.314285 9.654857 0 0-39.789714 2.340571-62.025143-61.732571v5.12s-17.993143-7.021714-5.12-34.230858c0.438857-0.877714 1.024-1.609143 1.901714-2.048 0.731429-0.438857 1.609143-0.585143 2.633143-0.146285 1.316571 0.585143 1.901714 2.194286 1.462857 3.510857-0.877714 3.218286-2.633143 10.093714-2.340571 11.410286 0 0 2.194286-11.849143 6.436571-12.726858l0.146286-2.340571s-7.168-0.585143-5.705143-11.702857c0 0 21.357714 3.803429 24.429714-19.456 0 0 4.681143-1.316571 5.412572 0.585143 0.585143 1.901714 1.316571 4.681143 1.316571 4.681143s5.851429-4.681143 12.141714-4.242286c2.048 0.146286 3.657143 1.901714 3.510857 3.949714-0.146286 2.633143 0 5.997714 1.024 5.705143 0 0 0.438857 0 0.877715-0.438857s0.292571-20.333714 22.674285-17.408c13.165714 1.755429 17.846857 9.069714 19.456 14.628571 1.316571 4.388571 0.731429 9.216-1.755428 13.165715-0.585143 0.877714-1.170286 1.755429-1.901714 2.340571l1.316571 0.438857s4.681143-5.851429 8.192-2.779428c3.364571 3.072 1.170286 6.582857 1.170286 6.582857s-7.753143 6.875429-3.657143 12.288c0 0 2.633143-17.115429 20.333714-13.019429l0.292572 4.096z m-40.521143-34.523428c-8.192-2.048-16.091429 1.462857-17.700572 7.753142-1.609143 6.290286 3.803429 13.165714 11.995429 15.213715s16.091429-1.462857 17.700571-7.753143c1.462857-6.436571-3.949714-13.312-11.995428-15.213714zM423.643429 299.300571s0.585143 3.072 0.731428-0.146285c0.146286-3.218286-11.117714-9.216-11.117714-9.216 2.633143-4.681143 53.394286-27.648 54.418286-28.086857 1.170286-0.438857 1.901714-1.609143 1.462857-1.316572-0.438857 0.438857-18.432 4.827429-18.432 4.827429 9.947429-4.388571 17.993143-28.672 19.602285-28.818286 1.462857-0.146286 2.194286 11.556571 2.194286 11.556571 8.777143-3.218286 23.405714-28.525714 23.405714-28.525714 8.630857 1.901714-2.633143 23.259429-2.633142 23.259429 16.237714-5.997714 31.012571-5.266286 31.597714-4.681143s-25.6 14.628571-25.6 14.628571c54.272-6.875429 111.762286 12.141714 106.203428 14.921143-5.558857 2.779429-7.899429 9.947429-7.899428 9.947429 21.796571-18.432 35.401143-0.877714 35.401143-0.877715-40.813714-11.995429-41.837714 75.044571-41.837715 75.044572-21.065143-25.161143-57.051429-23.990857-57.051428-23.990857-61.878857-5.558857-77.531429 38.912-78.994286 41.984-1.462857 2.925714-2.925714 1.024-2.925714 1.024s-4.973714-13.897143-20.187429-44.763429-43.739429-22.966857-43.739428-22.966857c20.333714-16.237714 35.401143-3.803429 35.401143-3.803429z m63.341714 10.971429s20.333714-17.554286 45.787428-10.678857c0 0-21.942857-15.652571-45.787428 10.678857z m0 12.726857c33.499429-19.456 56.612571-9.801143 62.025143-7.606857s4.242286-1.316571 4.242285-1.316571c-31.890286-19.602286-70.656 8.484571-70.656 8.484571l4.388572 0.438857zM638.390857 856.356571s-3.510857-1.609143-2.340571-3.218285c1.755429 0.438857 3.657143 0.585143 4.388571-1.024 1.170286-2.194286 5.851429-13.897143 9.216-22.089143 1.170286-2.779429 2.340571-5.412571 3.218286-8.192 17.408-48.274286-1.901714-93.622857-1.901714-93.622857l-11.995429-48.566857c-4.388571-11.117714-4.827429-37.010286-3.803429-42.130286 1.170286-5.12 3.949714 2.048 3.949715 2.048s13.458286-31.890286 9.801143-53.686857c-2.925714-17.846857-24.429714-27.794286-32.182858-31.012572-0.146286 0-0.146286 0-0.292571-0.146285-2.048-0.877714-5.412571-1.755429-7.460571-2.340572-1.316571-0.438857-2.779429-0.292571-4.096 0.438857l-11.702858 6.729143c-9.216 5.412571-17.700571 13.019429-22.235428 17.554286-3.803429 3.803429-6.582857 8.484571-7.899429 13.750857-3.657143 15.36 8.045714 23.990857 8.045715 23.990857s-1.316571-7.021714 1.316571-15.36c2.486857-8.338286 2.194286 15.798857 1.316571 19.894857-1.024 4.096-3.949714 31.597714-3.949714 31.597715 7.899429-12.873143 8.630857-7.168 8.630857-7.168S556.178286 677.302857 541.257143 731.136c-14.921143 53.833143-7.606857 110.006857-7.606857 110.006857 0.292571 10.093714 4.827429 11.410286 6.582857 11.556572 0.585143 0 1.170286 0.585143 1.170286 1.316571-0.292571 2.925714-11.556571 2.486857-11.556572 2.486857s-15.652571-2.048-15.36 9.947429c0 0-0.731429 8.484571 1.609143 8.192s22.528 1.316571 8.192 14.628571c0 0 2.340571 5.558857 11.702857 2.779429 0 0 10.24-25.161143 48.859429 6.875428l9.216 7.899429s0.585143-5.12-3.072-8.923429c-3.657143-3.657143 1.316571-20.48 20.187428-4.681143 0 0 8.484571 2.925714 2.048-9.801142 0 0-4.242286-5.997714-19.163428-13.897143 0 0-2.194286-4.242286 5.705143 0s16.822857 7.606857 16.822857 13.750857 0.731429 16.237714 9.654857 12.873143c0 0-14.774857-15.652571 3.364571-17.115429 0 0 6.144 0 9.947429 2.486857s7.606857 1.755429 4.973714-4.681143c-2.633143-6.436571-4.681143-13.750857-22.235428-7.314285 0 0-5.412571 0.438857-7.899429-5.266286 0 0 11.264 3.072 18.139429 0s16.091429 7.021714 16.676571 9.801143c0.585143 2.779429 9.362286 0.877714 4.827429-5.412572-4.827429-6.144-15.652571-12.288-15.652572-12.288z" fill="#567CAA" p-id="1548"></path><path d="M648.338286 639.122286c0.877714 27.062857 11.702857 32.621714 11.702857 32.621714 47.689143 32.768 51.931429 60.269714 51.931428 60.269714-17.993143 0.292571-29.842286 11.849143-29.842285 11.849143 55.296-21.650286 75.337143 6.582857 75.337143 6.582857-22.674286 1.462857-23.698286 19.456-23.698286 19.456l-6.582857 5.705143c-7.606857-2.194286-21.504-1.462857-31.890286 16.676572-10.386286 18.139429 0.438857 26.916571 0.438857 26.916571-9.654857 20.187429-2.486857 24.576-2.486857 24.576 0.877714-14.628571 10.093714-22.235429 10.093714-22.235429-0.877714-0.146286-1.755429-0.585143-2.486857-1.024-2.340571-1.462857-3.949714-3.949714-4.681143-6.582857-5.12-19.456 7.168-29.257143 17.846857-34.377143 11.264-5.412571 15.652571 5.266286 15.652572 9.216 0 3.949714 1.609143 5.558857 2.340571 5.266286s0.585143-6.875429-1.316571-13.750857c-1.901714-6.729143 5.558857-2.486857 6.582857-2.194286 1.024 0.292571 1.462857-0.877714 1.462857-0.877714-5.12-4.096-1.609143-10.386286-1.609143-10.386286 21.650286 5.997714 30.573714-4.973714 30.573715-4.973714 5.266286 2.048-0.731429 13.604571 0 13.604571s4.534857-6.582857 5.412571-9.508571c0.877714-2.925714 15.213714 4.242286 15.213714 4.242286-1.024 7.021714 1.609143 8.484571 1.609143 8.484571-0.731429-13.165714 9.801143-9.801143 9.801143-9.801143-0.146286 0.438857-0.585143 1.609143-0.585143 2.048-0.585143 7.753143 3.949714 15.213714 11.117714 18.139429 4.973714 2.048 9.947429 1.462857 9.947429 1.462857 3.510857 8.777143-6.582857 9.801143-6.582857 9.801143s4.681143 10.971429 5.266286 12.580571 1.462857 2.340571 1.462857 2.340572c0.585143-4.096 2.633143-3.072 4.681143-1.024 2.633143 2.779429 4.242286 6.436571 4.388571 10.24 1.170286 19.456-11.556571 24.868571-11.556571 24.868571s-0.877714-3.657143-0.146286-7.753143-1.609143-1.170286-1.609143-1.170285c-7.899429 52.955429-60.562286 62.464-60.562286 62.464-14.482286 2.925714-44.617143-9.654857-59.392-25.161143-14.774857-15.506286-39.643429-14.774857-39.643428-14.774857l-14.921143-8.338286 1.755428-3.510857c4.242286-8.484571 9.216-16.530286 14.336-24.429715 13.750857-20.918857 9.069714-51.638857 9.069715-51.638857 2.486857-13.750857-10.971429-57.636571-15.798857-72.704-0.731429-2.486857-1.755429-4.973714-2.925715-7.314285-5.12-10.971429-10.386286-45.787429-10.386285-45.787429l7.753142-12.141714c2.779429-1.755429 2.925714 2.048 2.925715 2.048z m81.92 189.732571c-13.165714 20.772571-10.825143 45.787429 5.12 55.734857 15.945143 10.093714 39.497143 1.316571 52.516571-19.309714 13.165714-20.772571 10.825143-45.787429-5.12-55.734857-15.798857-10.093714-39.350857-1.316571-52.516571 19.309714z m-11.995429-44.324571c-4.681143-2.779429-12.141714 1.170286-16.530286 8.777143s-4.096 16.091429 0.585143 18.724571c4.681143 2.779429 12.141714-1.170286 16.530286-8.777143s4.096-16.091429-0.585143-18.724571z" fill="#567CAA" p-id="1549"></path><path d="M516.242286 877.714286c-5.12 2.194286-15.652571 8.338286-12.141715 20.626285 0 0 18.578286-10.532571 19.309715-11.410285 0.585143-0.731429 4.827429-6.875429-0.877715-9.362286-2.048-0.731429-4.388571-0.731429-6.290285 0.146286zM608.548571 896.146286c-2.486857-2.925714-6.144-4.681143-9.947428-4.681143-3.218286 0-5.997714 1.170286-2.779429 6.436571 5.997714 9.801143 14.336 20.626286 14.336 20.626286s10.678857-8.192-1.609143-22.381714zM633.563429 883.565714s-7.899429 0-6.582858 5.705143c1.316571 5.705143 10.678857 8.484571 19.602286 19.309714 8.777143 10.825143 8.045714-25.6-13.019428-25.014857zM657.700571 879.908571c-1.609143-0.438857-3.364571-0.585143-4.973714 0.146286-1.901714 0.731429-3.364571 2.048-2.048 4.973714 2.779429 5.851429 17.261714 8.045714 17.261714 8.045715s1.755429-9.508571-10.24-13.165715zM474.112 878.299429c-2.486857 0.731429-4.534857 2.340571-3.072 5.705142 0.585143 1.316571 1.609143 2.486857 2.779429 3.364572l16.676571 12.580571s8.192-11.117714-7.753143-20.48c-2.633143-1.609143-5.705143-2.048-8.630857-1.170285zM380.781714 874.496c-7.314286 2.779429-24.137143 10.532571-21.504 22.966857l24.283429-11.264c1.901714-0.877714 3.510857-1.901714 4.973714-3.364571 2.194286-2.194286 4.242286-5.412571 0.146286-7.753143-2.486857-1.462857-5.266286-1.609143-7.899429-0.585143zM364.690286 875.081143s-23.405714 22.235429-31.158857 16.091428c-7.753143-6.144 20.187429-37.449143 31.158857-16.091428zM333.677714 866.596571c-3.657143-1.024-7.606857-0.731429-11.117714 0.877715-5.266286 2.486857-13.165714 6.875429-10.24 10.24 4.388571 5.12 14.336-7.899429 25.453714-5.997715 0 0 1.755429-3.510857-4.096-5.12z" fill="#003B71" p-id="1550"></path><path d="M706.320693 807.615174a6.144 10.386286 23.409 1 0 8.252777-19.062828 6.144 10.386286 23.409 1 0-8.252777 19.062828Z" fill="#003B71" p-id="1551"></path><path d="M806.695824 782.241194a10.386286 6.144 47.346 1 0 9.037318-8.325973 10.386286 6.144 47.346 1 0-9.037318 8.325973Z" fill="#003B71" p-id="1552"></path><path d="M742.403421 761.456342a5.266286 10.386286 79.358 1 0 20.415288-3.836109 5.266286 10.386286 79.358 1 0-20.415288 3.836109Z" fill="#003B71" p-id="1553"></path><path d="M734.061714 831.926857c-11.849143 18.870857-10.24 41.106286 3.657143 50.029714 13.897143 8.777143 34.816 0.731429 46.665143-18.139428 11.849143-18.870857 10.24-41.106286-3.657143-50.029714-13.897143-8.777143-34.816-0.731429-46.665143 18.139428z m17.554286 41.106286c19.602286-28.086857 15.213714-34.230857 15.213714-34.230857 12.580571 4.681143-15.213714 34.230857-15.213714 34.230857zM335.140571 844.507429c-8.630857-0.438857-9.069714 16.969143-9.069714 16.969142-3.949714 0.585143-6.436571 4.388571-6.436571 4.388572-10.386286 0-38.619429 1.024-52.077715-28.525714-5.558857-12.141714-4.388571-21.650286-1.024-28.672 4.827429-10.24 15.652571-16.091429 26.916572-15.067429 44.909714 4.242286 41.691429 50.907429 41.691428 50.907429z m-45.348571-23.405715c0.292571 4.681143 2.486857 28.818286 17.115429 34.816 0 0-12.580571-14.336-13.750858-32.621714 0-0.731429-0.146286-1.609143-0.438857-2.340571-0.438857-1.024-1.024-2.194286-2.048-1.462858-0.585143 0.292571-0.877714 1.024-0.877714 1.609143z" fill="#314360" p-id="1554"></path><path d="M311.418505 767.672447a11.264 7.899429 21.076 1 0 5.681363-14.74198 11.264 7.899429 21.076 1 0-5.681363 14.74198Z" fill="#003B71" p-id="1555"></path><path d="M245.875196 767.334964a4.096 10.24 55.731 1 0 16.924735-11.531858 4.096 10.24 55.731 1 0-16.924735 11.531858Z" fill="#003B71" p-id="1556"></path><path d="M228.758 808.049312a3.218286 8.045714 3.889 1 0 1.091381-16.054375 3.218286 8.045714 3.889 1 0-1.091381 16.054375Z" fill="#003B71" p-id="1557"></path><path d="M349.141283 796.429072a9.362286 3.949714 78.282 1 0 7.734797-1.604334 9.362286 3.949714 78.282 1 0-7.734797 1.604334Z" fill="#003B71" p-id="1558"></path><path d="M832.073143 827.099429a7.460571 2.633143 90 1 0 5.266286 0 7.460571 2.633143 90 1 0-5.266286 0Z" fill="#003B71" p-id="1559"></path></svg>