<?xml version="1.0" standalone="no"?><!DOCTYPE svg PUBLIC "-//W3C//DTD SVG 1.1//EN" "http://www.w3.org/Graphics/SVG/1.1/DTD/svg11.dtd"><svg t="1747759638361" class="icon" viewBox="0 0 1024 1024" version="1.1" xmlns="http://www.w3.org/2000/svg" p-id="4223" xmlns:xlink="http://www.w3.org/1999/xlink" width="200" height="200"><path d="M511.36 789.333333c64.042667-0.149333 171.221333-2.666667 244.608-86.442666 48.405333-55.253333 51.626667-200.789333-40.768-289.152-39.573333-37.824-73.386667-76.864-203.84-80.32-92.394667-2.432-164.266667 43.264-203.84 81.088-92.394667 88.341333-86.122667 231.445333-40.768 289.152 65.237333 83.008 180.629333 85.824 244.608 85.674666z" fill="#3A8AD3" p-id="4224"></path><path d="M765.12 677.333333s-5.333333-229.333333 56-266.666666L858.666667 554.666667l34.666666 34.666666s-26.88 69.333333-128.213333 88z" fill="#3A8AD3" p-id="4225"></path><path d="M890.453333 549.333333s-13.333333 2.666667-8 16c2.368 5.930667 6.314667 13.952 9.984 21.056-50.005333 43.264-100.650667 58.944-100.650666 58.944s45.333333-133.333333 29.333333-234.666666-13.44-262.293333 45.333333-280c26.56-8 128 40 122.666667 248-1.92 74.944-28.181333 130.261333-60.864 170.666666H890.453333z" fill="#FE9ACC" p-id="4226"></path><path d="M263.893333 677.333333s5.333333-229.333333-56-266.666666L170.666667 528 136 586.666667s26.56 72 127.893333 90.666666z" fill="#3A8AD3" p-id="4227"></path><path d="M424 594.666667c0-31.744 1.706667-63.466667 0-95.210667-1.749333-32.213333-10.666667-72.789333-45.269333-79.552-21.696-4.245333-40.490667-0.810667-58.730667 12.096-37.930667 26.858667-51.285333 80.96-53.824 124.096-8 136 83.157333 137.237333 83.157333 137.237333s74.666667 5.589333 74.666667-98.666666z" fill="#82CDEC" p-id="4228"></path><path d="M568.725333 535.125333s-26.602667-10.581333-56.725333-9.792c-30.122667-0.32-56.725333 10.666667-56.725333 10.666667s4.394667-5.504 13.952-11.733333a80 80 0 0 1 42.581333-12.736 79.872 79.872 0 0 1 42.773333 12.074666c9.664 6.101333 14.144 11.52 14.144 11.52z" fill="#1853B2" p-id="4229"></path><path d="M434.666667 628.010667a77.333333 76.096 0 1 0 154.666666 0 77.333333 76.096 0 1 0-154.666666 0Z" fill="#212121" p-id="4230"></path><path d="M289.472 592a80 60.010667 90 1 0 120.021333 0 80 60.010667 90 1 0-120.021333 0Z" fill="#212121" p-id="4231"></path><path d="M358.805333 554.666667m-21.333333 0a21.333333 21.333333 0 1 0 42.666667 0 21.333333 21.333333 0 1 0-42.666667 0Z" fill="#FFFFFF" p-id="4232"></path><path d="M138.56 549.333333s13.333333 2.666667 8 16c-2.368 5.930667-6.314667 13.952-9.984 21.056 50.005333 43.264 100.650667 58.944 100.650667 58.944s-45.333333-133.333333-29.333334-234.666666 13.44-262.293333-45.333333-280C136 122.666667 34.56 170.666667 39.893333 378.666667c1.92 74.944 28.181333 130.261333 60.864 170.666666h37.802667z" fill="#FE9ACC" p-id="4233"></path><path d="M709.333333 706.517333s2.666667 5.482667-13.333333 16.149334c-10.666667 8-97.344 37.184-182.677333 34.517333-114.666667 0-163.904-29.376-171.434667-32.746667a48.256 48.256 0 0 1-16.128-11.818666c-7.168-8.234667-8.448-14.122667-8.448-14.122667s5.162667 4.906667 13.333333 10.816c4.053333 2.901333 11.989333 6.464 18.666667 8 6.421333 1.514667 107.221333 18.688 162.688 18.688 56.277333 0.426667 166.869333-13.76 176-18.666667 16-5.333333 21.333333-10.816 21.333333-10.816z" fill="#212121" p-id="4234"></path><path d="M397.333333 405.632c-0.362667 1.002667-15.445333-12.586667-32-13.632-17.728-1.130667-37.333333 5.632-37.333333 5.632s2.816-3.733333 8.746667-8.341333c5.781333-4.544 15.488-10.197333 28.373333-9.706667 13.141333 0.554667 22.741333 9.173333 26.56 15.36 4.16 6.336 5.653333 10.688 5.653333 10.688zM632 407.125333c0.234667 0.106667 0.064-4.992 4.096-12.416 3.669333-7.253333 15.36-16.298667 29.290667-15.104a43.52 43.52 0 0 1 28.650666 14.229334c5.461333 5.994667 7.296 10.624 7.296 10.624s-19.221333-14.4-34.666666-12.458667c-9.237333-0.682667-19.242667 3.690667-25.258667 7.552-2.794667 2.026667-5.312 3.818667-6.805333 5.333333l-2.602667 2.24z" fill="#1853B2" p-id="4235"></path><path d="M501.333333 696h21.333334v48h-21.333334z" fill="#212121" p-id="4236"></path><path d="M601.685333 594.624c0-31.744-1.706667-63.466667 0-95.210667 1.749333-32.213333 10.666667-72.789333 45.269334-79.552 21.696-4.245333 40.490667-0.810667 58.730666 12.096 37.930667 26.858667 51.285333 80.96 53.824 124.096 8 136-83.157333 137.237333-83.157333 137.237334s-74.666667 5.589333-74.666667-98.666667z" fill="#82CDEC" p-id="4237"></path><path d="M616.192 591.936a80 60.010667 90 1 0 120.021333 0 80 60.010667 90 1 0-120.021333 0Z" fill="#212121" p-id="4238"></path><path d="M666.858667 554.602667m-21.333334 0a21.333333 21.333333 0 1 0 42.666667 0 21.333333 21.333333 0 1 0-42.666667 0Z" fill="#FFFFFF" p-id="4239"></path></svg>